<svg id="Group_936" data-name="Group 936" xmlns="http://www.w3.org/2000/svg" width="44.001" height="47.37" viewBox="0 0 44.001 47.37">
  <g id="Group_935" data-name="Group 935">
    <g id="Group_931" data-name="Group 931" transform="translate(0 0.505)">
      <g id="Group_929" data-name="Group 929" transform="translate(5.054)">
        <path id="Path_234" data-name="Path 234" d="M24.569,57.333a7.283,7.283,0,0,0,3.912-.769c1.161-.652,2.113-1.552,3.364-2.139,3.651-1.734,5.177-4.942,5.386-8.855a13.7,13.7,0,0,0-.691-4.747,10.56,10.56,0,0,0-3.99-5.542c-1.265-.926-2.778-1.4-4.108-2.217a7.436,7.436,0,0,1-3.9-5.008,4.619,4.619,0,0,1,.887-4.069,4.924,4.924,0,0,1,3-1.513,3.394,3.394,0,0,1,3.886,1.839,2.709,2.709,0,0,1-.326,3.169A4.008,4.008,0,0,1,29.8,28.591c.743.352.978.352,2.243.052A3.388,3.388,0,0,0,34.3,26.035a4.451,4.451,0,0,0-1.787-4.316c-.235-.17-.274-.3-.1-.587a3.376,3.376,0,0,1,2.282-1.682c1.265-.313,3.4.248,4.121,1.421a8.669,8.669,0,0,1,.978,5.725,5.678,5.678,0,0,1-.522,1.891,3.473,3.473,0,0,1-3.99,1.708.7.7,0,0,0-.665.065,3.932,3.932,0,0,0,3.012,1.2,2.811,2.811,0,0,0,1.669-.522c.3-.235.482-.17.443.248a2.507,2.507,0,0,0,0,.313q-.039,14.925-.078,29.863a11.419,11.419,0,0,1-.261,2.582,2.607,2.607,0,0,1-1.8,2.086c-2.439.613-4.981-.13-5.816-3.051A4.746,4.746,0,0,1,33.7,57.867a5.11,5.11,0,0,1,3.221-.73c.3.013.626.13.952-.117-.274-.143-.509-.274-.743-.391a4.687,4.687,0,0,0-4.747.1,5.477,5.477,0,0,0-2.621,4.277c-.052.548-.235.743-.809.7a5.121,5.121,0,0,1-4.9-3.756C23.891,57.385,23.943,57.307,24.569,57.333Z" transform="translate(-23.973 -19.364)" fill="#d1b89f"/>
      </g>
      <g id="Group_930" data-name="Group 930" transform="translate(0 13.716)">
        <path id="Path_235" data-name="Path 235" d="M21.379,42.711c.874-.9,2.582-1.708,3.73-.978a1.912,1.912,0,0,1,.691,2.621,2.98,2.98,0,0,1-2.4,1.069c.313.091.509.156.691.222a3.727,3.727,0,0,0,3.208-.73c.861-.952.574-3.312-.639-4.29a11.513,11.513,0,0,0-1.826-.939,5.538,5.538,0,0,1-2.256-2.621,5.664,5.664,0,0,1-.391-3.86c.456-1.9,1.917-2.817,3.69-3.286a.852.852,0,0,1,.835.2,18.081,18.081,0,0,0,4.16,2.4,9.233,9.233,0,0,1,3.912,3.038,11.1,11.1,0,0,1,1.839,6.768,8.684,8.684,0,0,1-2.386,6.259,3.459,3.459,0,0,1-1.4,1.03c.222-2.66-.926-4.734-1.943-5.216-.052.1,0,.183.039.287a5.367,5.367,0,0,1-.052,4.434c-1.408,3.312-5.321,3.7-7.89,2.06a6.282,6.282,0,0,1-2.543-3.482A4.519,4.519,0,0,1,21.379,42.711Z" transform="translate(-20.097 -29.882)" fill="#d1b89f"/>
      </g>
    </g>
    <g id="Group_934" data-name="Group 934" transform="translate(23.043)">
      <g id="Group_932" data-name="Group 932">
        <path id="Path_236" data-name="Path 236" d="M53.081,27.874a7.283,7.283,0,0,0-3.912.769c-1.161.652-2.113,1.552-3.364,2.139-3.651,1.734-5.177,4.942-5.386,8.855a13.7,13.7,0,0,0,.691,4.747,10.56,10.56,0,0,0,3.99,5.542c1.265.926,2.778,1.4,4.108,2.217a7.436,7.436,0,0,1,3.9,5.008,4.619,4.619,0,0,1-.887,4.069,4.924,4.924,0,0,1-3,1.513,3.394,3.394,0,0,1-3.886-1.839,2.709,2.709,0,0,1,.326-3.169,4.008,4.008,0,0,1,2.191-1.108c-.743-.352-.978-.352-2.243-.052a3.388,3.388,0,0,0-2.256,2.608,4.451,4.451,0,0,0,1.787,4.316c.235.17.274.3.1.587a3.376,3.376,0,0,1-2.282,1.682c-1.265.313-3.4-.248-4.121-1.421a8.669,8.669,0,0,1-.978-5.725,5.678,5.678,0,0,1,.522-1.891,3.473,3.473,0,0,1,3.99-1.708.7.7,0,0,0,.665-.065,3.932,3.932,0,0,0-3.012-1.2,2.811,2.811,0,0,0-1.669.522c-.3.235-.482.17-.443-.248a2.507,2.507,0,0,0,0-.313q.039-14.925.078-29.863a11.419,11.419,0,0,1,.261-2.582,2.607,2.607,0,0,1,1.8-2.086c2.439-.613,4.981.13,5.816,3.051a4.746,4.746,0,0,1-1.917,5.112,5.11,5.11,0,0,1-3.221.73c-.3-.013-.626-.13-.952.117.274.143.509.274.743.391a4.687,4.687,0,0,0,4.747-.1A5.477,5.477,0,0,0,47.89,24.2c.052-.548.235-.743.809-.7a5.121,5.121,0,0,1,4.9,3.756C53.759,27.822,53.693,27.888,53.081,27.874Z" transform="translate(-37.767 -18.977)" fill="#d1b89f"/>
      </g>
      <g id="Group_933" data-name="Group 933" transform="translate(4.435 10.914)">
        <path id="Path_237" data-name="Path 237" d="M56.415,36.753c-.874.9-2.582,1.708-3.73.978a1.912,1.912,0,0,1-.691-2.621,2.98,2.98,0,0,1,2.4-1.069c-.313-.091-.509-.156-.691-.222a3.727,3.727,0,0,0-3.208.73c-.861.952-.574,3.312.639,4.29a11.513,11.513,0,0,0,1.826.939A5.538,5.538,0,0,1,55.215,42.4a5.664,5.664,0,0,1,.391,3.86c-.456,1.9-1.917,2.817-3.69,3.286a.852.852,0,0,1-.835-.2,18.081,18.081,0,0,0-4.16-2.4,9.233,9.233,0,0,1-3.912-3.038,11.1,11.1,0,0,1-1.839-6.768,8.684,8.684,0,0,1,2.386-6.259,3.46,3.46,0,0,1,1.4-1.03c-.222,2.66.926,4.734,1.943,5.216.052-.1,0-.183-.039-.287a5.367,5.367,0,0,1,.052-4.434c1.408-3.312,5.321-3.7,7.89-2.06a6.282,6.282,0,0,1,2.543,3.482A4.551,4.551,0,0,1,56.415,36.753Z" transform="translate(-41.168 -27.346)" fill="#d1b89f"/>
      </g>
    </g>
  </g>
</svg>
