<svg id="Group_271" data-name="Group 271" xmlns="http://www.w3.org/2000/svg" width="28.351" height="28.351" viewBox="0 0 28.351 28.351">
  <path id="Path_9" data-name="Path 9" d="M0,0H28.351V28.351H0Z" fill="none"/>
  <path id="Path_10" data-name="Path 10" d="M14.286,2c3.338,0,3.754.012,5.064.074a9.051,9.051,0,0,1,2.983.571A5.99,5.99,0,0,1,24.51,4.062a6.03,6.03,0,0,1,1.417,2.177A9.076,9.076,0,0,1,26.5,9.221c.058,1.31.074,1.726.074,5.064s-.012,3.754-.074,5.064a9.082,9.082,0,0,1-.571,2.983,6.272,6.272,0,0,1-3.594,3.594,9.076,9.076,0,0,1-2.983.571c-1.31.058-1.726.074-5.064.074s-3.754-.012-5.064-.074a9.082,9.082,0,0,1-2.983-.571,6.272,6.272,0,0,1-3.594-3.594,9.044,9.044,0,0,1-.571-2.983C2.016,18.04,2,17.624,2,14.286s.012-3.754.074-5.064a9.044,9.044,0,0,1,.571-2.983A6,6,0,0,1,4.062,4.062,6.016,6.016,0,0,1,6.239,2.645a9.044,9.044,0,0,1,2.983-.571C10.531,2.016,10.948,2,14.286,2Zm0,6.143a6.143,6.143,0,1,0,6.143,6.143A6.143,6.143,0,0,0,14.286,8.143Zm7.986-.307a1.536,1.536,0,1,0-1.536,1.536A1.536,1.536,0,0,0,22.271,7.836ZM14.286,10.6A3.686,3.686,0,1,1,10.6,14.286,3.686,3.686,0,0,1,14.286,10.6Z" transform="translate(-0.11 -0.11)" fill="#686159"/>
</svg>
