<svg id="Group_272" data-name="Group 272" xmlns="http://www.w3.org/2000/svg" width="28.351" height="28.351" viewBox="0 0 28.351 28.351">
  <path id="Path_11" data-name="Path 11" d="M0,0H28.351V28.351H0Z" fill="none"/>
  <path id="Path_12" data-name="Path 12" d="M26.712,6.221a9.861,9.861,0,0,1-2.938.847,5.362,5.362,0,0,0,2.251-2.979A9.921,9.921,0,0,1,22.775,5.4a4.933,4.933,0,0,0-6.151-1.07,5.487,5.487,0,0,0-2.565,5.98A14.3,14.3,0,0,1,3.515,4.68a5.582,5.582,0,0,0-.692,2.707A5.461,5.461,0,0,0,5.1,11.868a4.907,4.907,0,0,1-2.317-.673v.067a5.326,5.326,0,0,0,4.1,5.278,4.9,4.9,0,0,1-2.311.093,5.158,5.158,0,0,0,4.779,3.739A9.9,9.9,0,0,1,1.779,22.6a13.952,13.952,0,0,0,7.841,2.42c9.41,0,14.556-8.2,14.556-15.317,0-.232-.006-.466-.016-.7a10.711,10.711,0,0,0,2.553-2.787Z" transform="translate(-0.098 -0.203)" fill="#686159"/>
</svg>
