<svg xmlns="http://www.w3.org/2000/svg" width="15.733" height="15.733" viewBox="0 0 15.733 15.733">
  <g id="Icon_ionic-ios-menu" data-name="Icon ionic-ios-menu" transform="translate(-6.633 -10.133)">
    <path id="Path_162" data-name="Path 162" d="M23.667,19.125H5.333c-.458,0-.833-.506-.833-1.125h0c0-.619.375-1.125.833-1.125H23.667c.458,0,.833.506.833,1.125h0C24.5,18.619,24.125,19.125,23.667,19.125Z" transform="translate(16.975 -4.981) rotate(45)" fill="#fff"/>
    <path id="Path_164" data-name="Path 164" d="M19.167,0H.833C.375,0,0,.506,0,1.125H0C0,1.744.375,2.25.833,2.25H19.167c.458,0,.833-.506.833-1.125h0C20,.507,19.625,0,19.167,0Z" transform="translate(22.367 11.725) rotate(135)" fill="#fff"/>
  </g>
</svg>
