<svg xmlns="http://www.w3.org/2000/svg" width="448.251" height="200.515" viewBox="0 0 448.251 200.515">
  <g id="Group_1102" data-name="Group 1102" transform="translate(448.251) rotate(90)">
    <g id="Group_929" data-name="Group 929" transform="translate(48.344 0)">
      <path id="Path_234" data-name="Path 234" d="M5.7,363.153c12.972.374,25.694-.748,37.418-7.359,11.1-6.236,20.206-14.843,32.18-20.455,34.924-16.589,49.517-47.272,51.513-84.69.873-15.466-2.12-30.558-6.611-45.4-6.735-22.077-19.707-39.414-38.167-53.009-12.1-8.856-26.567-13.346-39.289-21.2-18.46-11.225-33.178-25.569-37.294-47.9C2.959,69.17,4.082,55.45,13.935,44.224c7.484-8.606,17.587-12.473,28.687-14.468,13.346-2.37,30.808,1.621,37.169,17.587,4.615,11.35,5.363,20.7-3.118,30.309-5.363,5.987-12.847,8.731-20.954,10.6,7.109,3.368,9.355,3.368,21.453.5C87.026,86.382,98,74.034,98.75,63.807c1.123-16.589-2.619-31.182-17.088-41.285-2.245-1.621-2.619-2.869-1-5.613C85.529,8.053,93.012,3.189,102.492.819c12.1-2.993,32.554,2.37,39.414,13.6,10.477,16.963,11.475,35.672,9.355,54.755a54.309,54.309,0,0,1-4.989,18.086c-5.737,12.473-24.447,21.578-38.167,16.339a6.649,6.649,0,0,0-6.361.624c8.232,8.357,18.085,11.724,28.812,11.475,5.488-.125,11.225-1.372,15.965-4.989,2.869-2.245,4.615-1.621,4.241,2.37a23.972,23.972,0,0,0,0,2.993q-.374,142.751-.748,285.626a109.214,109.214,0,0,1-2.495,24.7c-2.245,9.355-7.733,17.587-17.212,19.956-23.324,5.862-47.646-1.247-55.629-29.186-5.114-17.836,2.869-38.915,18.335-48.893,9.6-6.236,19.832-7.608,30.808-6.985,2.869.125,5.987,1.247,9.105-1.123-2.619-1.372-4.864-2.619-7.109-3.742-15.341-7.11-30.434-8.357-45.4,1-15.092,9.479-23.2,23.324-25.07,40.911-.5,5.238-2.245,7.109-7.733,6.735-21.952-1.372-41.035-13.6-46.9-35.922C-.783,363.652-.284,362.9,5.7,363.153Z" transform="translate(0)" fill="#f3e8dc"/>
    </g>
    <g id="Group_930" data-name="Group 930" transform="translate(0 131.183)">
      <path id="Path_235" data-name="Path 235" d="M12.263,122.708c8.357-8.606,24.7-16.339,35.672-9.355,8.481,5.363,12.223,16.838,6.611,25.07-5.363,7.733-13.6,9.23-22.95,10.228,2.993.873,4.864,1.5,6.611,2.12,8.606,2.994,24.945-.624,30.683-6.985,8.232-9.105,5.488-31.681-6.112-41.035-5.363-4.241-11.724-5.862-17.462-8.98C35.089,88.283,28.728,78.929,23.738,68.7A54.173,54.173,0,0,1,20,31.782C24.362,13.571,38.332,4.84,55.294.35a8.148,8.148,0,0,1,7.983,1.871C75.126,12.2,89.1,18.685,103.065,25.171,117.783,31.906,131,40.637,140.483,54.233c13.6,19.458,17.961,41.41,17.587,64.734-.374,22.825-6.486,43.281-22.825,59.869-3.867,3.867-7.608,8.107-13.346,9.854,2.12-25.444-8.856-45.276-18.584-49.891-.5,1,0,1.746.374,2.744,6.361,14.219,5.363,28.438-.5,42.407C89.719,215.63,52.3,219.372,27.73,203.656c-12.348-7.983-19.832-19.582-24.322-33.3C-2.7,152.768-1.082,136.553,12.263,122.708Z" transform="translate(0 0)" fill="#f3e8dc"/>
    </g>
  </g>
</svg>
