<svg id="Group_270" data-name="Group 270" xmlns="http://www.w3.org/2000/svg" width="28.351" height="28.351" viewBox="0 0 28.351 28.351">
  <path id="Path_7" data-name="Path 7" d="M0,0H28.351V28.351H0Z" fill="none"/>
  <path id="Path_8" data-name="Path 8" d="M18.627,25.681V16.9h2.94l.44-3.412H18.627V11.314c0-.988.275-1.662,1.691-1.662h1.807V6.6a24.181,24.181,0,0,0-2.634-.135c-2.6,0-4.388,1.59-4.388,4.511v2.515H12.158V16.9H15.1v8.778H4.26A1.26,1.26,0,0,1,3,24.421V4.26A1.26,1.26,0,0,1,4.26,3H24.421a1.26,1.26,0,0,1,1.26,1.26V24.421a1.26,1.26,0,0,1-1.26,1.26Z" transform="translate(-0.165 -0.165)" fill="#686159"/>
</svg>
