<svg id="icon2" xmlns="http://www.w3.org/2000/svg" width="84.36" height="84.344" viewBox="0 0 84.36 84.344">
  <path id="Path_541" data-name="Path 541" d="M77.507,94.834q-28.437-.025-56.873-.016H12.759c-2.014,0-2.587-.589-2.587-2.619V80.771c0-17.157,0-34.887-.033-52.338a4.4,4.4,0,0,1,1.392-3.422c3.814-3.733,7.645-7.6,11.345-11.312l2.439-2.456A2.4,2.4,0,0,1,27.1,10.49q31.064.025,62.145.016H92.4a1.9,1.9,0,0,1,2.079,2.112v37.7q0,13.8.016,27.6a2.465,2.465,0,0,1-.769,1.784q-7.22,7.2-14.407,14.423a2.633,2.633,0,0,1-1.817.7ZM13.938,91.2q9.209-.025,18.385-.016H56.765q9.577,0,19.171.016h.115v-.065c-.016-21.119-.016-42.008,0-62.079v-.131H75.9c-3.88.016-7.727.016-11.591.016-3.847,0-7.678,0-11.525-.016h-.164v.18c.033,5.779.016,11.64.016,17.3v4.617c0,1.948-.54,2.472-2.521,2.472H39.608c-1.915,0-2.5-.589-2.5-2.5v-4.78c0-5.583,0-11.362.016-17.059v-.246h-.2q-5.746.025-11.46.033-5.746,0-11.476-.033l-.016-.851v.851h-.213v.213c.033,20.153.033,40.977,0,61.9v.164A.672.672,0,0,0,13.938,91.2ZM89.687,17.841c-3.405,3.405-6.712,6.712-10.035,10.019-.033.033-.049.065-.049.377V88.662l2.341-2.325c2.75-2.767,5.6-5.615,8.431-8.4a1.461,1.461,0,0,0,.491-1.2q-.025-26.005-.016-52.011V16.695ZM40.738,28.989c.016,2.587.016,5.157.016,7.744V42.1c0,2.6,0,5.222-.016,7.825v.016c1.375-.016,2.718-.033,4.076-.033,1.424,0,2.849.016,4.273.016H49.1c-.016-6.647-.033-13.506,0-21v-.016c-1.441.016-2.849.033-4.256.033-1.375,0-2.734-.016-4.109-.033v-.016Q40.738,28.94,40.738,28.989ZM38.92,25.355c11.525,0,24.573,0,37.375.033a1.664,1.664,0,0,0,1.342-.573c2.554-2.6,5.19-5.222,7.727-7.76l1.228-1.211c.573-.573,1.146-1.13,1.752-1.719H76.034q-24.066,0-48.147-.016a.649.649,0,0,0-.573.246c-2.423,2.439-4.846,4.862-7.285,7.3l-3.716,3.716h6.565c5.108,0,10.232-.016,15.34-.016Z" transform="translate(-10.14 -10.49)" fill="#d1b89f"/>
  <path id="Path_542" data-name="Path 542" d="M37.28,61.815c-1.588,0-2.276-.671-2.276-2.259q-.025-4.052,0-8.1c0-1.588.7-2.292,2.259-2.292H54.192c1.588,0,2.259.688,2.259,2.276q.025,4.052,0,8.1c0,1.653-.638,2.276-2.341,2.276H37.28Zm1.392-8.988c.033,1.6.033,3.356,0,5.353,2.374,0,4.748-.016,7.121-.016,2.341,0,4.7,0,7.04.016-.033-2.063-.033-3.782,0-5.353-1.08.016-2.145.016-3.192.016H41.864C40.8,52.843,39.736,52.843,38.672,52.827Z" transform="translate(5.694 14.147)" fill="#d1b89f"/>
</svg>
