<svg id="icon1" xmlns="http://www.w3.org/2000/svg" width="72.161" height="87.415" viewBox="0 0 72.161 87.415">
  <path id="Path_534" data-name="Path 534" d="M66.814,9.55a12.424,12.424,0,0,1,3.8,1.637A8.725,8.725,0,0,1,74.2,18.472c-.016,7.285,0,14.57,0,21.855q0,12.3-.016,24.589a.9.9,0,0,0,.786,1.048,15.861,15.861,0,0,1-2.783,30.859A15.331,15.331,0,0,1,59.267,92.6a2.007,2.007,0,0,0-1.506-.573q-17.46.025-34.92,0a8.491,8.491,0,0,1-8.071-4.879,8.4,8.4,0,0,1-.884-4.044c.016-6.859,0-13.719,0-20.578,0-10.494.016-21-.016-31.5a8.938,8.938,0,0,1,2.407-6.352q5.5-6.09,10.887-12.246A9.336,9.336,0,0,1,32.157,9.55ZM55.993,88.622a1.394,1.394,0,0,0-.278-.851A15.867,15.867,0,0,1,69.859,65.244c.769-.016.917-.229.917-.966Q70.752,41.441,70.76,18.6a6.574,6.574,0,0,0-.131-1.6,5.206,5.206,0,0,0-5.419-4.027h-31.5c-.164,0-.344.016-.508,0-.72-.033-1.031.213-1.015,1.031.049,3.585.033,7.171.016,10.756,0,3.225-1.752,4.96-4.944,4.977H18.47c-1.179,0-1.179,0-1.179,1.211V82.86c0,3.667,2.1,5.763,5.779,5.763H55.993Zm26.636-7.563A12.483,12.483,0,1,0,70.154,93.566,12.443,12.443,0,0,0,82.629,81.059ZM28.62,15.967l-9.07,10.2a.882.882,0,0,0,.72.147c2.357,0,4.715.016,7.072,0,1.179,0,1.441-.278,1.457-1.457V16.671C28.784,16.459,28.866,16.229,28.62,15.967Z" transform="translate(-13.87 -9.55)" fill="#d1b89f"/>
  <path id="Path_535" data-name="Path 535" d="M38.563,28.935H25.777a5.212,5.212,0,0,1-1.015-.049,1.66,1.66,0,0,1-.164-3.241,3.518,3.518,0,0,1,.917-.115H51.692a1.89,1.89,0,0,1,1.965,1.064,1.675,1.675,0,0,1-1.637,2.341c-2.046.033-4.093.016-6.139.016C43.441,28.935,41,28.935,38.563,28.935Z" transform="translate(-7.817 0.631)" fill="#d1b89f"/>
  <path id="Path_536" data-name="Path 536" d="M38.563,44.275H25.777a6.914,6.914,0,0,1-1.015-.049,1.694,1.694,0,0,1-1.392-1.6A1.622,1.622,0,0,1,24.6,40.985a5,5,0,0,1,1.1-.115H51.528a4.188,4.188,0,0,1,1.1.131,1.589,1.589,0,0,1,1.162,1.67,1.627,1.627,0,0,1-1.326,1.555,6.155,6.155,0,0,1-1.1.049Z" transform="translate(-7.817 10.404)" fill="#d1b89f"/>
  <path id="Path_537" data-name="Path 537" d="M35.131,36.625H25.751a4.064,4.064,0,0,1-1.179-.115,1.68,1.68,0,0,1-1.211-1.653,1.662,1.662,0,0,1,1.392-1.588,4.952,4.952,0,0,1,.851-.049H44.709a5.944,5.944,0,0,1,.933.049,1.679,1.679,0,0,1,.131,3.241,4.138,4.138,0,0,1-1.179.131C41.451,36.625,38.291,36.625,35.131,36.625Z" transform="translate(-7.824 5.53)" fill="#d1b89f"/>
  <path id="Path_538" data-name="Path 538" d="M34.8,48.562h9.381a1.9,1.9,0,0,1,1.735.7,1.659,1.659,0,0,1-.8,2.57,3.588,3.588,0,0,1-1.179.147H25.177a1.748,1.748,0,0,1-1.817-1.752,1.686,1.686,0,0,1,1.883-1.653C28.435,48.545,31.628,48.562,34.8,48.562Z" transform="translate(-7.824 15.302)" fill="#d1b89f"/>
  <path id="Path_539" data-name="Path 539" d="M41.56,33.22a1.637,1.637,0,0,1,1.719,1.621,1.709,1.709,0,0,1-1.6,1.768,1.77,1.77,0,0,1-1.784-1.686A1.684,1.684,0,0,1,41.56,33.22Z" transform="translate(2.708 5.53)" fill="#d1b89f"/>
  <path id="Path_540" data-name="Path 540" d="M60.094,50.41a1.7,1.7,0,0,1-.557,1.162,38.054,38.054,0,0,0-6.3,11.132c-.753,1.85-1.637,2.145-3.34,1.048-1.965-1.261-3.929-2.5-5.877-3.765-.164-.115-.344-.213-.491-.327a1.7,1.7,0,1,1,1.85-2.849c1.473.9,2.947,1.834,4.371,2.816.655.442.917.393,1.244-.36a36.794,36.794,0,0,1,5.894-9.823,2.288,2.288,0,0,1,1.244-.851A1.682,1.682,0,0,1,60.094,50.41Z" transform="translate(4.49 15.304)" fill="#d1b89f"/>
</svg>
