<svg id="icon3" xmlns="http://www.w3.org/2000/svg" width="87.096" height="87.078" viewBox="0 0 87.096 87.078">
  <path id="Path_543" data-name="Path 543" d="M24.515,87.267a.315.315,0,0,1-.2-.065,2.467,2.467,0,0,1-.966-2.521,8.424,8.424,0,0,1,6.483-7.334c10.4-2.407,20.759-4.8,28.649-6.6A2.568,2.568,0,0,0,59.827,70q9.9-9.921,19.809-19.809a1.834,1.834,0,0,0,.606-1.1C81.273,42.836,82.4,36.058,83.713,28.4c.016-.131.033-.229.033-.278-.049.016-.131.033-.246.065a8.176,8.176,0,0,0-5.812,6.106c-.8,3.356-1.506,6.81-2.177,10.166a4.375,4.375,0,0,1-1.473,2.554c-3.765,3.34-7.547,6.761-11.214,10.085l-1.08.966a4.344,4.344,0,0,1-1.719.982c-4.535,1.277-9.053,2.57-13.588,3.864l-3.9,1.113-.147.049a3.191,3.191,0,0,1-.377.1,1.8,1.8,0,0,1-.409.033,1.62,1.62,0,0,1-1.67-1.277,1.677,1.677,0,0,1,1.244-2c1.277-.377,2.554-.753,3.831-1.113l2.325-.655c3.8-1.08,7.6-2.177,11.411-3.241a2.3,2.3,0,0,0,1.015-.589C63.429,52.02,67.587,48.271,71.68,44.6a2.027,2.027,0,0,0,.589-1.2c.229-1.031.442-2.079.655-3.111.491-2.325,1-4.748,1.572-7.105a11.778,11.778,0,0,1,10.559-8.677c.1,0,.2-.016.295-.016a2.285,2.285,0,0,1,2.046.982.351.351,0,0,1,.065.2v1.179a.208.208,0,0,1-.016.1,31.559,31.559,0,0,0-.753,3.864c-.082.508-.147,1.031-.246,1.539-.982,5.73-1.948,11.558-2.881,17.206l-.147.9a2.629,2.629,0,0,1-.769,1.49l-.524.524c-6.532,6.532-13.293,13.277-19.907,19.94a5.82,5.82,0,0,1-2.963,1.621c-7.007,1.588-14.014,3.209-21.021,4.813l-7.285,1.686a5.043,5.043,0,0,0-4.224,4.96,2.392,2.392,0,0,1-.966,1.67.323.323,0,0,1-.229.1H24.515Z" transform="translate(-0.366 -0.205)" fill="#d1b89f"/>
  <path id="Path_544" data-name="Path 544" d="M10.5,73.824a.315.315,0,0,1-.2-.065,2.428,2.428,0,0,1-1-2.226c.016-2.5.016-5.01.016-7.514,0-2.554,0-5.108.016-7.645a35.683,35.683,0,0,1,1.2-8.906l.049-.164a4.982,4.982,0,0,1,.18-.606,1.686,1.686,0,0,1,1.555-1.1,1.582,1.582,0,0,1,.475.065,1.736,1.736,0,0,1,1.031.8,1.453,1.453,0,0,1,.131,1.2c-1.326,4.5-1.293,9.217-1.261,13.784l.016,1.506v3.274c0,1.752,0,3.553.016,5.321a2.428,2.428,0,0,1-1,2.226.4.4,0,0,1-.2.065H10.5Z" transform="translate(-9.299 13.238)" fill="#d1b89f"/>
  <path id="Path_545" data-name="Path 545" d="M25.993,52.241a1.713,1.713,0,0,1-.966-.327,1.658,1.658,0,0,1-.72-1.031,1.976,1.976,0,0,1,.442-1.49A25.674,25.674,0,0,1,43.8,38.162c.655-.065.786-.131.769-.769-.049-2.668-.049-5.386-.033-8.022v-3.34a9.231,9.231,0,0,1-3.749,1.179c-.458.033-.933.049-1.375.049A17.851,17.851,0,0,1,27.974,23.1a40.712,40.712,0,0,1-7.842-8.677,1.969,1.969,0,0,1-.36-1.768,1.758,1.758,0,0,1,1.261-1.064A40.546,40.546,0,0,1,32.3,9.66a22.5,22.5,0,0,1,3.176.213,16.187,16.187,0,0,1,10.69,5.648.82.82,0,0,0,.115.131l.1-.1a16.727,16.727,0,0,1,11.3-5.7,24.743,24.743,0,0,1,2.718-.147A41.286,41.286,0,0,1,71.6,11.575a1.847,1.847,0,0,1,1.359,1.113,1.9,1.9,0,0,1-.377,1.752A36.88,36.88,0,0,1,63.4,24.05a17.429,17.429,0,0,1-9.986,3.307,16.98,16.98,0,0,1-3.127-.295,8.105,8.105,0,0,1-2.39-.933v4.42c0,2.374,0,4.731-.016,7.105,0,.409.033.458.409.475a23.093,23.093,0,0,1,5.533,1.048c1.13.36,1.686,1.2,1.424,2.128a1.6,1.6,0,0,1-1.621,1.228,2.618,2.618,0,0,1-.769-.131,22.405,22.405,0,0,0-6.647-1,22.822,22.822,0,0,0-18.745,9.937A1.766,1.766,0,0,1,25.993,52.241ZM59.767,13.049a15.058,15.058,0,0,0-7.367,1.9A9.056,9.056,0,0,0,48.356,18.7a3.469,3.469,0,0,0-.278,2.7,3.506,3.506,0,0,0,1.915,1.965,5.7,5.7,0,0,0,1.506.475,14.257,14.257,0,0,0,1.85.131h0A14.067,14.067,0,0,0,60.7,21.791c2.98-1.817,5.288-4.322,7.842-7.531.016-.016.033-.033.033-.049a.709.709,0,0,0-.082-.016,38.239,38.239,0,0,0-8.431-1.146ZM24.159,14.228a35.8,35.8,0,0,0,6.025,6.336,14.206,14.206,0,0,0,9,3.307c.409,0,.819-.016,1.244-.049,2.046-.18,3.323-.966,3.9-2.423.557-1.408.18-2.7-1.261-4.322a11.25,11.25,0,0,0-2.93-2.194,15.012,15.012,0,0,0-7.563-1.85,24.971,24.971,0,0,0-3.52.262A33.264,33.264,0,0,0,24.159,14.228Z" transform="translate(-2.679 -9.66)" fill="#d1b89f"/>
  <path id="Path_546" data-name="Path 546" d="M39.914,59.292a1.64,1.64,0,0,1-1.588-1.67,5.5,5.5,0,0,1,1.686-3.929,16.753,16.753,0,0,1,5.6-3.618,76.134,76.134,0,0,1,9.119-3.16c.982-.295,1.981-.589,2.963-.9.246-.082.475-.164.72-.229.327-.1.638-.213.966-.311a3.151,3.151,0,0,0,2.39-2.8,3.667,3.667,0,0,0-1.621-3.929,5.437,5.437,0,0,0-2.947-.9,5.854,5.854,0,0,0-2.063.409l-.36.147c-2.472.982-5.042,2-7.613,2.881a29.314,29.314,0,0,1-9.61,1.768,22.735,22.735,0,0,1-5.566-.688,19.738,19.738,0,0,0-4.748-.589,19.069,19.069,0,0,0-6.892,1.31,15.756,15.756,0,0,0-2.93,1.523A2.153,2.153,0,0,1,16.242,45a1.54,1.54,0,0,1-1.342-.786,1.7,1.7,0,0,1,.671-2.39,21.478,21.478,0,0,1,11.82-3.405h0a29.257,29.257,0,0,1,6.352.868,18.2,18.2,0,0,0,3.995.426A24.207,24.207,0,0,0,46.2,38.026c.933-.344,1.866-.688,2.8-1.048,1.653-.606,3.291-1.228,4.928-1.85a9.1,9.1,0,0,1,3.291-.638,8.752,8.752,0,0,1,4.158,1.08,6.927,6.927,0,0,1,3.749,7.367,6.452,6.452,0,0,1-4.846,5.812c-1.2.377-2.39.753-3.585,1.113-2.8.851-5.7,1.719-8.464,2.849a21.963,21.963,0,0,0-4.584,2.325,3.888,3.888,0,0,0-2.014,2.9,1.545,1.545,0,0,1-1.653,1.408C39.98,59.292,39.914,59.292,39.914,59.292Z" transform="translate(-5.894 6.159)" fill="#d1b89f"/>
  <path id="Path_547" data-name="Path 547" d="M51.453,41.355a1.605,1.605,0,0,1-1.473-1.015l-.049-.115a24.284,24.284,0,0,0-1.49-2.718c-.377-.557-.8-1.13-1.211-1.67-.213-.278-.426-.557-.622-.835A1.685,1.685,0,0,1,46.82,32.6a1.635,1.635,0,0,1,1.031-.377,1.819,1.819,0,0,1,1.375.688,25.461,25.461,0,0,1,3.782,5.975,1.8,1.8,0,0,1,.147.491l.016.1a.208.208,0,0,1,.016.1,1.618,1.618,0,0,1-1.211,1.752C51.8,41.322,51.616,41.355,51.453,41.355Z" transform="translate(14.213 4.713)" fill="#d1b89f"/>
  <path id="Path_548" data-name="Path 548" d="M44.784,32.806a1.69,1.69,0,0,1-1.179-.508,1.655,1.655,0,0,1-.475-1.2A1.667,1.667,0,0,1,46,29.958a1.655,1.655,0,0,1,.475,1.2,1.684,1.684,0,0,1-1.67,1.653Z" transform="translate(12.254 2.948)" fill="#d1b89f"/>
  <path id="Path_549" data-name="Path 549" d="M13.427,45.176a1.678,1.678,0,0,1,.033-3.356,1.7,1.7,0,0,1,1.686,1.719,1.681,1.681,0,0,1-1.67,1.637Z" transform="translate(-7.712 10.829)" fill="#d1b89f"/>
</svg>
