<svg id="Group_1125" data-name="Group 1125" xmlns="http://www.w3.org/2000/svg" width="484.5" height="521.594" viewBox="0 0 484.5 521.594">
  <g id="Group_935" data-name="Group 935">
    <g id="Group_931" data-name="Group 931" transform="translate(0 5.557)">
      <g id="Group_929" data-name="Group 929" transform="translate(55.655)">
        <path id="Path_234" data-name="Path 234" d="M30.538,437.435c14.933.431,29.579-.862,43.077-8.472,12.779-7.18,23.262-17.087,37.046-23.549,40.205-19.1,57.005-54.42,59.3-97.5,1.005-17.805-2.441-35.179-7.61-52.267-7.754-25.415-22.687-45.374-43.938-61.026-13.928-10.195-30.585-15.364-45.231-24.41-21.251-12.923-38.195-29.436-42.933-55.138-2.872-16.082-1.58-31.877,9.764-44.8,8.615-9.908,20.246-14.359,33.026-16.656,15.364-2.728,35.467,1.867,42.79,20.246,5.313,13.067,6.174,23.836-3.59,34.892-6.174,6.892-14.79,10.051-24.123,12.205,8.185,3.877,10.769,3.877,24.7.574,11.344-2.728,23.979-16.944,24.841-28.718,1.292-19.1-3.015-35.9-19.672-47.528-2.585-1.867-3.015-3.3-1.149-6.462,5.6-10.195,14.215-15.795,25.128-18.523,13.928-3.446,37.477,2.728,45.374,15.651,12.061,19.528,13.21,41.067,10.769,63.036a62.523,62.523,0,0,1-5.744,20.82c-6.605,14.359-28.143,24.841-43.938,18.81a7.654,7.654,0,0,0-7.323.718c9.477,9.621,20.821,13.5,33.169,13.21,6.318-.144,12.923-1.58,18.38-5.744,3.3-2.585,5.313-1.867,4.882,2.728a27.6,27.6,0,0,0,0,3.446q-.431,164.338-.862,328.82a125.732,125.732,0,0,1-2.872,28.431c-2.585,10.769-8.9,20.246-19.815,22.974-26.851,6.749-54.851-1.436-64.041-33.6-5.887-20.533,3.3-44.8,21.108-56.287,11.056-7.18,22.831-8.759,35.467-8.041,3.3.144,6.892,1.436,10.482-1.292-3.015-1.579-5.6-3.015-8.185-4.308-17.661-8.184-35.036-9.62-52.267,1.149-17.374,10.913-26.708,26.851-28.861,47.1-.574,6.031-2.585,8.185-8.9,7.754-25.272-1.579-47.241-15.651-53.99-41.354C23.072,438.009,23.646,437.148,30.538,437.435Z" transform="translate(-23.973 -19.364)" fill="#f3e8dc"/>
      </g>
      <g id="Group_930" data-name="Group 930" transform="translate(0 151.022)">
        <path id="Path_235" data-name="Path 235" d="M34.215,171.146c9.62-9.908,28.431-18.81,41.067-10.769,9.764,6.174,14.072,19.385,7.61,28.861-6.174,8.9-15.651,10.626-26.421,11.774,3.446,1.005,5.6,1.723,7.61,2.441,9.908,3.446,28.718-.718,35.323-8.041,9.477-10.482,6.318-36.472-7.036-47.241-6.174-4.882-13.5-6.749-20.1-10.338-11.774-6.318-19.1-17.087-24.841-28.862a62.366,62.366,0,0,1-4.308-42.5c5.026-20.964,21.108-31.015,40.636-36.185a9.38,9.38,0,0,1,9.19,2.154c13.641,11.487,29.723,18.954,45.805,26.42,16.944,7.754,32.164,17.805,43.077,33.456,15.651,22.4,20.677,47.672,20.246,74.523-.431,26.277-7.467,49.826-26.277,68.923-4.451,4.451-8.759,9.333-15.364,11.344,2.441-29.292-10.195-52.123-21.395-57.436-.574,1.149,0,2.01.431,3.159,7.323,16.369,6.174,32.738-.574,48.82-15.508,36.472-58.585,40.779-86.872,22.687-14.215-9.19-22.831-22.544-28-38.338C16.984,205.752,18.851,187.085,34.215,171.146Z" transform="translate(-20.097 -29.882)" fill="#f3e8dc"/>
      </g>
    </g>
    <g id="Group_934" data-name="Group 934" transform="translate(253.726)">
      <g id="Group_932" data-name="Group 932">
        <path id="Path_236" data-name="Path 236" d="M206.384,116.944c-14.933-.431-29.579.862-43.077,8.472-12.779,7.179-23.262,17.087-37.046,23.549-40.205,19.1-57,54.42-59.3,97.5-1.005,17.805,2.441,35.18,7.61,52.267,7.754,25.415,22.687,45.374,43.938,61.026,13.928,10.195,30.585,15.364,45.231,24.41,21.251,12.923,38.195,29.436,42.933,55.138,2.872,16.082,1.58,31.877-9.764,44.8-8.615,9.908-20.246,14.359-33.026,16.656-15.364,2.728-35.467-1.867-42.79-20.246-5.313-13.067-6.174-23.836,3.59-34.892,6.174-6.892,14.79-10.051,24.123-12.205-8.185-3.877-10.769-3.877-24.7-.574-11.344,2.728-23.979,16.944-24.841,28.718-1.292,19.1,3.015,35.9,19.672,47.528,2.585,1.867,3.015,3.3,1.149,6.461-5.6,10.195-14.215,15.795-25.128,18.523-13.928,3.446-37.477-2.728-45.374-15.651-12.062-19.528-13.21-41.067-10.769-63.036a62.523,62.523,0,0,1,5.744-20.821C51.164,420.2,72.7,409.723,88.5,415.754a7.654,7.654,0,0,0,7.323-.718c-9.477-9.621-20.82-13.5-33.169-13.21-6.318.144-12.923,1.579-18.379,5.744-3.3,2.585-5.313,1.867-4.882-2.728a27.6,27.6,0,0,0,0-3.446q.431-164.338.861-328.82a125.731,125.731,0,0,1,2.872-28.431c2.585-10.769,8.9-20.246,19.815-22.974,26.851-6.749,54.851,1.436,64.041,33.6,5.887,20.533-3.3,44.8-21.108,56.287-11.056,7.179-22.831,8.759-35.467,8.041-3.3-.144-6.892-1.436-10.482,1.292,3.015,1.579,5.6,3.015,8.185,4.308,17.661,8.185,35.036,9.621,52.267-1.149,17.374-10.913,26.708-26.851,28.861-47.1.574-6.031,2.585-8.185,8.9-7.754,25.272,1.579,47.241,15.651,53.99,41.354C213.851,116.37,213.133,117.088,206.384,116.944Z" transform="translate(-37.767 -18.977)" fill="#f3e8dc"/>
      </g>
      <g id="Group_933" data-name="Group 933" transform="translate(48.838 120.172)">
        <path id="Path_237" data-name="Path 237" d="M209.049,130.925c-9.62,9.908-28.431,18.81-41.067,10.769-9.764-6.174-14.072-19.385-7.61-28.861,6.174-8.9,15.651-10.626,26.421-11.774-3.446-1.005-5.6-1.723-7.61-2.441-9.908-3.446-28.718.718-35.323,8.041-9.477,10.482-6.318,36.472,7.036,47.241,6.174,4.882,13.5,6.749,20.1,10.339,11.774,6.318,19.1,17.087,24.841,28.861a62.365,62.365,0,0,1,4.308,42.5c-5.026,20.964-21.108,31.015-40.636,36.185a9.381,9.381,0,0,1-9.19-2.154c-13.641-11.487-29.723-18.954-45.805-26.421-16.943-7.754-32.164-17.805-43.077-33.456-15.651-22.4-20.677-47.672-20.246-74.523.431-26.277,7.467-49.826,26.277-68.923,4.451-4.451,8.759-9.333,15.364-11.344-2.441,29.292,10.195,52.123,21.395,57.436.574-1.149,0-2.01-.431-3.159-7.323-16.369-6.174-32.738.574-48.82,15.508-36.472,58.584-40.779,86.872-22.687,14.215,9.19,22.831,22.544,28,38.338C226.137,96.176,224.413,114.843,209.049,130.925Z" transform="translate(-41.168 -27.346)" fill="#f3e8dc"/>
      </g>
    </g>
  </g>
</svg>
