<svg xmlns="http://www.w3.org/2000/svg" width="24.037" height="24.036" viewBox="0 0 24.037 24.036">
  <path id="Icon_awesome-linkedin-in" data-name="Icon awesome-linkedin-in" d="M5.38,24.037H.4V7.989H5.38ZM2.886,5.8A2.9,2.9,0,1,1,5.772,2.887,2.91,2.91,0,0,1,2.886,5.8ZM24.032,24.037H19.059V16.225c0-1.862-.038-4.249-2.591-4.249-2.591,0-2.988,2.023-2.988,4.115v7.946H8.5V7.989h4.779v2.189h.07a5.236,5.236,0,0,1,4.715-2.591c5.043,0,5.971,3.321,5.971,7.635v8.815Z" transform="translate(0 -0.001)" fill="#686159"/>
</svg>
