<svg xmlns="http://www.w3.org/2000/svg" width="224.615" height="54.2" viewBox="0 0 224.615 54.2">
  <g id="logo_svg" data-name="logo svg" transform="translate(-20.097 -18.977)">
    <g id="Group_928" data-name="Group 928" transform="translate(75.015 22.906)">
      <path id="Path_229" data-name="Path 229" d="M178.8,35.759,167.718,58.5h20.474L186,53.872h-9.859l8.737-17.826V31.39H166.74v.248l1.956,4.121Z" transform="translate(-30.427 -19.132)" fill="#fff"/>
      <path id="Path_230" data-name="Path 230" d="M78.328,21.99,75.29,29.214,79.75,39.8c-.365-.026-.743-.052-1.135-.052a10.381,10.381,0,0,0-5.138,1.121A12.72,12.72,0,0,0,70.4,43.207a10.37,10.37,0,0,0-2.243,3.847c-.456,1.421-5.96,13.81-5.946,14.358h5.438c.13-.352.313-.835.535-1.408.782-2,1.317-3.286,1.721-4.264.743-1.8,2.8-6.9,3.73-8.163a7.991,7.991,0,0,1,1.317-1.369,2.294,2.294,0,0,1,.235-.17,6.073,6.073,0,0,1,3.156-.861H78.6a6.641,6.641,0,0,1,2.882.717c1.943,1.056,3.143,5.151,3.143,5.151.248.613,3.938,9.689,4.2,10.3h6.09Z" transform="translate(-62.21 -21.99)" fill="#fff"/>
      <g id="Group_927" data-name="Group 927" transform="translate(110.493 11.75)">
        <g id="Group_926" data-name="Group 926">
          <g id="Group_925" data-name="Group 925">
            <g id="Group_924" data-name="Group 924">
              <path id="Path_231" data-name="Path 231" d="M146.94,44.784a22.806,22.806,0,0,1,.678-6.481,10.37,10.37,0,0,1,2.243-3.847,12.721,12.721,0,0,1,3.078-2.334,12.241,12.241,0,0,1,10.237,0,12.562,12.562,0,0,1,3.091,2.334A10.164,10.164,0,0,1,168.5,38.3a22.808,22.808,0,0,1,.678,6.481,23.184,23.184,0,0,1-.678,6.559,10.518,10.518,0,0,1-2.23,3.847,11.4,11.4,0,0,1-3.091,2.334,12.506,12.506,0,0,1-10.237,0,12.092,12.092,0,0,1-3.078-2.334,10.37,10.37,0,0,1-2.243-3.847A23.245,23.245,0,0,1,146.94,44.784Zm16.822.052a19.7,19.7,0,0,0-.3-4.134,7.17,7.17,0,0,0-1.03-2.282,5.041,5.041,0,0,0-4.369-1.982,4.948,4.948,0,0,0-4.369,1.982,6.351,6.351,0,0,0-1.056,2.282,20.848,20.848,0,0,0-.274,4.082,21.588,21.588,0,0,0,.274,4.173,6.008,6.008,0,0,0,1.056,2.269,4.948,4.948,0,0,0,4.369,1.982,5.009,5.009,0,0,0,4.369-1.982,7.2,7.2,0,0,0,1.03-2.256A19.7,19.7,0,0,0,163.762,44.836Z" transform="translate(-146.94 -31)" fill="#fff"/>
            </g>
          </g>
        </g>
      </g>
      <path id="Path_232" data-name="Path 232" d="M96.581,58.594c-.013-.378-.013-.8-.013-1.239,0-1.93.091-15.87.274-16.666A6.251,6.251,0,0,1,97.9,38.407a4.948,4.948,0,0,1,4.369-1.982,5.041,5.041,0,0,1,4.369,1.982,7.61,7.61,0,0,1,1.03,2.282c.2.8.3,14.762.3,16.718,0,.417,0,.809-.013,1.187h5.412c.013-.391.013-.809.013-1.239,0-2.9-.222-17.631-.678-19.052a10.517,10.517,0,0,0-2.23-3.847,12.561,12.561,0,0,0-3.091-2.334,12.241,12.241,0,0,0-10.237,0,12.72,12.72,0,0,0-3.078,2.334A10.37,10.37,0,0,0,91.821,38.3c-.469,1.421-.691,16.17-.691,19.065,0,.43,0,.835.013,1.239h5.438Z" transform="translate(-53.417 -19.25)" fill="#fff"/>
      <path id="Path_233" data-name="Path 233" d="M148.254,44.265a22.022,22.022,0,0,0-.665-5.96,10.369,10.369,0,0,0-2.243-3.847,11.459,11.459,0,0,0-2.517-2h0c-.183-.117-.365-.235-.574-.352a10.29,10.29,0,0,0-5.1-1.121h0a10.381,10.381,0,0,0-5.138,1.121,12.72,12.72,0,0,0-3.078,2.334,10.37,10.37,0,0,0-2.243,3.847,22.808,22.808,0,0,0-.678,6.481,23.185,23.185,0,0,0,.678,6.559,10.37,10.37,0,0,0,2.243,3.847,11.524,11.524,0,0,0,3.078,2.334,10.5,10.5,0,0,0,5.138,1.1h0a13.093,13.093,0,0,0,3.182-.365,7.913,7.913,0,0,0,1.291-.443,5.428,5.428,0,0,0,.626-.287c.2-.117.378-.222.574-.339v1.1a5.388,5.388,0,0,1-1.734,4.316,6.507,6.507,0,0,1-4.434,1.513,6.1,6.1,0,0,1-2.921-.73,9.42,9.42,0,0,1-2.347-1.721L127.181,65a14.008,14.008,0,0,0,4.29,3.273,11.274,11.274,0,0,0,5.1,1.252,12.582,12.582,0,0,0,8.15-2.882q3.541-2.9,3.547-8.972v-12.9h0l-.013-.509ZM134.8,52.807c-.078-.026-.156-.052-.222-.078a4.293,4.293,0,0,1-1.787-1.487,6.1,6.1,0,0,1-1.056-2.269,21.676,21.676,0,0,1-.274-4.173,20.752,20.752,0,0,1,.274-4.082,6.25,6.25,0,0,1,1.056-2.282,4.948,4.948,0,0,1,4.369-1.982,5.041,5.041,0,0,1,4.369,1.982,7.61,7.61,0,0,1,1.03,2.282v.013c.026.13.065.274.091.43a.361.361,0,0,1,.013.117c.026.156.052.326.065.509v.026c.026.209.039.443.052.691v.039c.013.235.026.5.039.769V46.43c-.013.274-.026.535-.039.769v.039c-.013.248-.039.469-.052.691v.026c-.013.183-.039.352-.065.509,0,.039-.013.078-.013.117a3.551,3.551,0,0,1-.091.43v.013a6.915,6.915,0,0,1-1.03,2.256,5.041,5.041,0,0,1-4.369,1.982,6.883,6.883,0,0,1-1.865-.235A2.328,2.328,0,0,0,134.8,52.807Z" transform="translate(-42.808 -19.253)" fill="#fff"/>
      <rect id="Rectangle_355" data-name="Rectangle 355" width="5.477" height="27.124" transform="translate(68.789 12.219)" fill="#fff"/>
      <rect id="Rectangle_356" data-name="Rectangle 356" width="5.477" height="27.124" transform="translate(164.22 12.219)" fill="#fff"/>
    </g>
    <g id="Group_936" data-name="Group 936" transform="translate(20.097 18.977)">
      <g id="Group_935" data-name="Group 935">
        <g id="Group_931" data-name="Group 931" transform="translate(0 0.505)">
          <g id="Group_929" data-name="Group 929" transform="translate(5.054)">
            <path id="Path_234" data-name="Path 234" d="M24.569,57.333a7.283,7.283,0,0,0,3.912-.769c1.161-.652,2.113-1.552,3.364-2.139,3.651-1.734,5.177-4.942,5.386-8.855a13.7,13.7,0,0,0-.691-4.747,10.56,10.56,0,0,0-3.99-5.542c-1.265-.926-2.778-1.4-4.108-2.217a7.436,7.436,0,0,1-3.9-5.008,4.619,4.619,0,0,1,.887-4.069,4.924,4.924,0,0,1,3-1.513,3.394,3.394,0,0,1,3.886,1.839,2.709,2.709,0,0,1-.326,3.169A4.008,4.008,0,0,1,29.8,28.591c.743.352.978.352,2.243.052A3.388,3.388,0,0,0,34.3,26.035a4.451,4.451,0,0,0-1.787-4.316c-.235-.17-.274-.3-.1-.587a3.376,3.376,0,0,1,2.282-1.682c1.265-.313,3.4.248,4.121,1.421a8.669,8.669,0,0,1,.978,5.725,5.678,5.678,0,0,1-.522,1.891,3.473,3.473,0,0,1-3.99,1.708.7.7,0,0,0-.665.065,3.932,3.932,0,0,0,3.012,1.2,2.811,2.811,0,0,0,1.669-.522c.3-.235.482-.17.443.248a2.507,2.507,0,0,0,0,.313q-.039,14.925-.078,29.863a11.419,11.419,0,0,1-.261,2.582,2.607,2.607,0,0,1-1.8,2.086c-2.439.613-4.981-.13-5.816-3.051A4.746,4.746,0,0,1,33.7,57.867a5.11,5.11,0,0,1,3.221-.73c.3.013.626.13.952-.117-.274-.143-.509-.274-.743-.391a4.687,4.687,0,0,0-4.747.1,5.477,5.477,0,0,0-2.621,4.277c-.052.548-.235.743-.809.7a5.121,5.121,0,0,1-4.9-3.756C23.891,57.385,23.943,57.307,24.569,57.333Z" transform="translate(-23.973 -19.364)" fill="#d1b89f"/>
          </g>
          <g id="Group_930" data-name="Group 930" transform="translate(0 13.716)">
            <path id="Path_235" data-name="Path 235" d="M21.379,42.711c.874-.9,2.582-1.708,3.73-.978a1.912,1.912,0,0,1,.691,2.621,2.98,2.98,0,0,1-2.4,1.069c.313.091.509.156.691.222a3.727,3.727,0,0,0,3.208-.73c.861-.952.574-3.312-.639-4.29a11.513,11.513,0,0,0-1.826-.939,5.538,5.538,0,0,1-2.256-2.621,5.664,5.664,0,0,1-.391-3.86c.456-1.9,1.917-2.817,3.69-3.286a.852.852,0,0,1,.835.2,18.081,18.081,0,0,0,4.16,2.4,9.233,9.233,0,0,1,3.912,3.038,11.1,11.1,0,0,1,1.839,6.768,8.684,8.684,0,0,1-2.386,6.259,3.459,3.459,0,0,1-1.4,1.03c.222-2.66-.926-4.734-1.943-5.216-.052.1,0,.183.039.287a5.367,5.367,0,0,1-.052,4.434c-1.408,3.312-5.321,3.7-7.89,2.06a6.282,6.282,0,0,1-2.543-3.482A4.519,4.519,0,0,1,21.379,42.711Z" transform="translate(-20.097 -29.882)" fill="#d1b89f"/>
          </g>
        </g>
        <g id="Group_934" data-name="Group 934" transform="translate(23.043)">
          <g id="Group_932" data-name="Group 932">
            <path id="Path_236" data-name="Path 236" d="M53.081,27.874a7.283,7.283,0,0,0-3.912.769c-1.161.652-2.113,1.552-3.364,2.139-3.651,1.734-5.177,4.942-5.386,8.855a13.7,13.7,0,0,0,.691,4.747,10.56,10.56,0,0,0,3.99,5.542c1.265.926,2.778,1.4,4.108,2.217a7.436,7.436,0,0,1,3.9,5.008,4.619,4.619,0,0,1-.887,4.069,4.924,4.924,0,0,1-3,1.513,3.394,3.394,0,0,1-3.886-1.839,2.709,2.709,0,0,1,.326-3.169,4.008,4.008,0,0,1,2.191-1.108c-.743-.352-.978-.352-2.243-.052a3.388,3.388,0,0,0-2.256,2.608,4.451,4.451,0,0,0,1.787,4.316c.235.17.274.3.1.587a3.376,3.376,0,0,1-2.282,1.682c-1.265.313-3.4-.248-4.121-1.421a8.669,8.669,0,0,1-.978-5.725,5.678,5.678,0,0,1,.522-1.891,3.473,3.473,0,0,1,3.99-1.708.7.7,0,0,0,.665-.065,3.932,3.932,0,0,0-3.012-1.2,2.811,2.811,0,0,0-1.669.522c-.3.235-.482.17-.443-.248a2.507,2.507,0,0,0,0-.313q.039-14.925.078-29.863a11.419,11.419,0,0,1,.261-2.582,2.607,2.607,0,0,1,1.8-2.086c2.439-.613,4.981.13,5.816,3.051a4.746,4.746,0,0,1-1.917,5.112,5.11,5.11,0,0,1-3.221.73c-.3-.013-.626-.13-.952.117.274.143.509.274.743.391a4.687,4.687,0,0,0,4.747-.1A5.477,5.477,0,0,0,47.89,24.2c.052-.548.235-.743.809-.7a5.121,5.121,0,0,1,4.9,3.756C53.759,27.822,53.693,27.888,53.081,27.874Z" transform="translate(-37.767 -18.977)" fill="#d1b89f"/>
          </g>
          <g id="Group_933" data-name="Group 933" transform="translate(4.435 10.914)">
            <path id="Path_237" data-name="Path 237" d="M56.415,36.753c-.874.9-2.582,1.708-3.73.978a1.912,1.912,0,0,1-.691-2.621,2.98,2.98,0,0,1,2.4-1.069c-.313-.091-.509-.156-.691-.222a3.727,3.727,0,0,0-3.208.73c-.861.952-.574,3.312.639,4.29a11.513,11.513,0,0,0,1.826.939A5.538,5.538,0,0,1,55.215,42.4a5.664,5.664,0,0,1,.391,3.86c-.456,1.9-1.917,2.817-3.69,3.286a.852.852,0,0,1-.835-.2,18.081,18.081,0,0,0-4.16-2.4,9.233,9.233,0,0,1-3.912-3.038,11.1,11.1,0,0,1-1.839-6.768,8.684,8.684,0,0,1,2.386-6.259,3.46,3.46,0,0,1,1.4-1.03c-.222,2.66.926,4.734,1.943,5.216.052-.1,0-.183-.039-.287a5.367,5.367,0,0,1,.052-4.434c1.408-3.312,5.321-3.7,7.89-2.06a6.282,6.282,0,0,1,2.543,3.482A4.551,4.551,0,0,1,56.415,36.753Z" transform="translate(-41.168 -27.346)" fill="#d1b89f"/>
          </g>
        </g>
      </g>
    </g>
  </g>
</svg>
