<svg xmlns="http://www.w3.org/2000/svg" width="246.761" height="53" viewBox="0 0 246.761 53">
  <g id="logo_Geo_svg" data-name="logo Geo svg" transform="translate(-10.607 -19.135)">
    <g id="Group_1161" data-name="Group 1161" transform="translate(10.607 19.135)">
      <g id="Group_1160" data-name="Group 1160">
        <g id="Group_1156" data-name="Group 1156" transform="translate(0 0.277)">
          <g id="Group_1154" data-name="Group 1154" transform="translate(5.025)">
            <path id="Path_238" data-name="Path 238" d="M15.145,56.972a8.021,8.021,0,0,0,3.872-.774,29.175,29.175,0,0,1,3.356-2.065c3.614-1.678,5.163-4.9,5.292-8.776a13.961,13.961,0,0,0-.645-4.646,10.2,10.2,0,0,0-4-5.55c-1.291-.9-2.71-1.42-4-2.194-1.936-1.162-3.485-2.581-3.872-4.9a4.509,4.509,0,0,1,.9-4,5.115,5.115,0,0,1,2.968-1.549,3.313,3.313,0,0,1,3.872,1.807,2.524,2.524,0,0,1-.387,3.1,4.015,4.015,0,0,1-2.194,1.162c.774.387,1.033.387,2.194,0A3.21,3.21,0,0,0,24.7,26a4.308,4.308,0,0,0-1.807-4.259c-.258-.129-.258-.258-.129-.645a3.471,3.471,0,0,1,2.323-1.678,4.492,4.492,0,0,1,4.13,1.42,9.742,9.742,0,0,1,1.033,5.679,5.409,5.409,0,0,1-.516,1.936,3.56,3.56,0,0,1-4,1.678c-.129,0-.387-.129-.645,0a3.971,3.971,0,0,0,2.968,1.162,2.839,2.839,0,0,0,1.678-.516c.258-.258.516-.129.387.258v.258c0,9.809,0,19.747-.129,29.556a8.781,8.781,0,0,1-.258,2.581,2.5,2.5,0,0,1-1.807,2.065c-2.452.645-4.9-.129-5.808-2.968a4.6,4.6,0,0,1,1.936-5.033,5.7,5.7,0,0,1,3.227-.774c.258,0,.645.129.9-.129l-.774-.387a4.326,4.326,0,0,0-4.646.129,5.42,5.42,0,0,0-2.581,4.259c0,.516-.258.774-.774.645a5.111,5.111,0,0,1-4.9-3.743C14.5,56.972,14.5,56.972,15.145,56.972Z" transform="translate(-14.5 -19.35)" fill="#d1b89f"/>
          </g>
          <g id="Group_1155" data-name="Group 1155" transform="translate(0 13.434)">
            <path id="Path_239" data-name="Path 239" d="M11.889,42.589c.9-.9,2.581-1.678,3.743-1.033a1.778,1.778,0,0,1,.645,2.581,3.022,3.022,0,0,1-2.323,1.033c.258.129.516.129.645.258a3.648,3.648,0,0,0,3.227-.774c.9-.9.516-3.227-.645-4.259a7.885,7.885,0,0,0-1.807-.9,5.393,5.393,0,0,1-2.194-2.581,5.781,5.781,0,0,1-.387-3.872,4.415,4.415,0,0,1,3.614-3.227.853.853,0,0,1,.774.129,18.75,18.75,0,0,0,4.13,2.323,8.717,8.717,0,0,1,3.872,2.968,11.218,11.218,0,0,1,1.807,6.711,8.455,8.455,0,0,1-2.323,6.2,2.915,2.915,0,0,1-1.42,1.033c.258-2.581-.9-4.646-1.936-5.163v.258a5.744,5.744,0,0,1,0,4.388c-1.42,3.227-5.292,3.614-7.873,2.065a6.417,6.417,0,0,1-2.581-3.485A4.544,4.544,0,0,1,11.889,42.589Z" transform="translate(-10.607 -29.759)" fill="#d1b89f"/>
          </g>
        </g>
        <g id="Group_1159" data-name="Group 1159" transform="translate(23.052)">
          <g id="Group_1157" data-name="Group 1157">
            <path id="Path_240" data-name="Path 240" d="M43.481,27.737a8.021,8.021,0,0,0-3.872.774,29.176,29.176,0,0,1-3.356,2.065c-3.614,1.678-5.163,4.9-5.292,8.776A13.961,13.961,0,0,0,31.607,44a10.2,10.2,0,0,0,4,5.55,41.8,41.8,0,0,0,4.13,2.194c1.936,1.162,3.485,2.581,3.872,4.9a4.509,4.509,0,0,1-.9,4A5.115,5.115,0,0,1,39.738,62.2a3.313,3.313,0,0,1-3.872-1.807,2.524,2.524,0,0,1,.387-3.1,3.215,3.215,0,0,1,2.194-1.033c-.774-.387-1.033-.387-2.194,0a3.21,3.21,0,0,0-2.194,2.581A4.308,4.308,0,0,0,35.866,63.1c.258.129.258.258.129.645a3.471,3.471,0,0,1-2.323,1.678A4.492,4.492,0,0,1,29.542,64a9.742,9.742,0,0,1-1.033-5.679,5.409,5.409,0,0,1,.516-1.936,3.56,3.56,0,0,1,4-1.678c.129,0,.387.129.645,0A3.8,3.8,0,0,0,30.7,53.55a2.839,2.839,0,0,0-1.678.516c-.258.258-.516.129-.387-.258V53.55c0-9.809,0-19.747.129-29.556a8.781,8.781,0,0,1,.258-2.581,2.5,2.5,0,0,1,1.807-2.065c2.452-.645,4.9.129,5.808,2.968A4.6,4.6,0,0,1,34.7,27.35a5.7,5.7,0,0,1-3.227.774c-.258,0-.645-.129-.9.129l.774.387a4.326,4.326,0,0,0,4.646-.129,5.42,5.42,0,0,0,2.581-4.259c0-.516.258-.774.774-.645a5.111,5.111,0,0,1,4.9,3.743C44.126,27.737,44,27.737,43.481,27.737Z" transform="translate(-28.468 -19.135)" fill="#d1b89f"/>
          </g>
          <g id="Group_1158" data-name="Group 1158" transform="translate(4.171 10.821)">
            <path id="Path_241" data-name="Path 241" d="M46.8,36.658c-.9.9-2.581,1.678-3.743,1.033a1.778,1.778,0,0,1-.645-2.581,3.022,3.022,0,0,1,2.323-1.033c-.258-.129-.516-.129-.645-.258a3.648,3.648,0,0,0-3.227.774c-.9.9-.516,3.227.645,4.259a7.886,7.886,0,0,0,1.807.9,5.393,5.393,0,0,1,2.194,2.581,5.781,5.781,0,0,1,.387,3.872c-.387,1.936-1.936,2.839-3.614,3.227-.258.129-.516,0-.774-.258a18.75,18.75,0,0,0-4.13-2.323,8.717,8.717,0,0,1-3.872-2.968A11.218,11.218,0,0,1,31.7,37.174a8.455,8.455,0,0,1,2.323-6.2,4.045,4.045,0,0,1,1.42-1.033c-.258,2.581.9,4.646,1.936,5.163v-.258a5.744,5.744,0,0,1,0-4.388c1.42-3.227,5.292-3.614,7.744-2.065A6.417,6.417,0,0,1,47.7,31.882,4.25,4.25,0,0,1,46.8,36.658Z" transform="translate(-31.7 -27.519)" fill="#d1b89f"/>
          </g>
        </g>
      </g>
    </g>
    <g id="Group_1162" data-name="Group 1162" transform="translate(64.971 25.93)">
      <path id="Path_242" data-name="Path 242" d="M112.808,41.622a11.348,11.348,0,0,0-.387-2.581,9.951,9.951,0,0,0-4.13-5.421,10.058,10.058,0,0,0-5.679-1.42h-.645a10.6,10.6,0,0,0-5.55,1.42,9.951,9.951,0,0,0-4.13,5.421,11.35,11.35,0,0,0-.387,2.581v3.614h0V57.884h5.163V43.816a10.89,10.89,0,0,1,.258-2.452,5.93,5.93,0,0,1,.9-2.065,4.261,4.261,0,0,1,3.743-1.807h.645a4.344,4.344,0,0,1,3.872,1.807,4.828,4.828,0,0,1,.9,2.065,10.006,10.006,0,0,1,.258,2.452V57.884h5.163V45.235h0C112.808,44.719,112.808,41.622,112.808,41.622Z" transform="translate(-41.345 -22.133)" fill="#fff"/>
      <path id="Path_243" data-name="Path 243" d="M206.508,41.622a11.35,11.35,0,0,0-.387-2.581,9.951,9.951,0,0,0-4.13-5.421,10.058,10.058,0,0,0-5.679-1.42h-.645a10.6,10.6,0,0,0-5.55,1.42,9.951,9.951,0,0,0-4.13,5.421,11.349,11.349,0,0,0-.387,2.581v3.614h0V57.884h5.163V43.816a10.891,10.891,0,0,1,.258-2.452,5.93,5.93,0,0,1,.9-2.065,4.261,4.261,0,0,1,3.743-1.807h.645a4.344,4.344,0,0,1,3.872,1.807,4.828,4.828,0,0,1,.9,2.065,10.007,10.007,0,0,1,.258,2.452V57.884h5.163V45.235h0C206.508,44.719,206.508,41.622,206.508,41.622Z" transform="translate(-14.112 -22.133)" fill="#fff"/>
      <path id="Path_244" data-name="Path 244" d="M167.754,41.622a11.349,11.349,0,0,0-.387-2.581,9.951,9.951,0,0,0-4.13-5.421,10.058,10.058,0,0,0-5.679-1.42h-.645a10.6,10.6,0,0,0-5.55,1.42,8.248,8.248,0,0,0-1.936,1.678,8.247,8.247,0,0,0-1.936-1.678,10.058,10.058,0,0,0-5.679-1.42h-.645a10.6,10.6,0,0,0-5.55,1.42,9.951,9.951,0,0,0-4.13,5.421,11.349,11.349,0,0,0-.387,2.581v3.614h0V57.884h5.163V43.816a10.891,10.891,0,0,1,.258-2.452,5.93,5.93,0,0,1,.9-2.065,4.261,4.261,0,0,1,3.743-1.807h.645a4.344,4.344,0,0,1,3.872,1.807,4.829,4.829,0,0,1,.9,2.065,10.008,10.008,0,0,1,.258,2.452v1.42h0v7.1h5.163v-7.1h0v-1.42a10.891,10.891,0,0,1,.258-2.452,5.93,5.93,0,0,1,.9-2.065,4.261,4.261,0,0,1,3.743-1.807h.645A4.344,4.344,0,0,1,161.43,39.3a4.828,4.828,0,0,1,.9,2.065,10.006,10.006,0,0,1,.258,2.452V57.884h5.163V45.235h0C167.754,44.719,167.754,41.622,167.754,41.622Z" transform="translate(-29.952 -22.133)" fill="#fff"/>
      <path id="Path_245" data-name="Path 245" d="M69.47,39.169c-1.678-2.065-3.485-4.646-3.614-6.969H60.435a19.425,19.425,0,0,0,4.259,9.422c1.033,1.162,2.581,2.452,3.1,4.9a7.076,7.076,0,0,1-.387,4.13A4.885,4.885,0,0,1,66.372,52.2a5.083,5.083,0,0,1-2.065,1.033,7.05,7.05,0,0,1-2.452,0,4.718,4.718,0,0,1-2.581-1.42,5.423,5.423,0,0,1-1.291-3.872v-.258a6.127,6.127,0,0,1,1.549-3.227c-1.678-.645-3.227-1.42-4.9-2.065a10.077,10.077,0,0,0-1.807,4.517A11.34,11.34,0,0,0,55.4,55.3a6.464,6.464,0,0,0,1.033.9,7.2,7.2,0,0,0,2.71,1.549,9.482,9.482,0,0,0,4,.774,8.75,8.75,0,0,0,3.356-.387,7.372,7.372,0,0,0,1.936-.774,9.337,9.337,0,0,0,2.968-2.194A14.756,14.756,0,0,0,73.6,51.3a5.59,5.59,0,0,0,.129-.645,11.631,11.631,0,0,0,.258-1.678C73.987,44.59,71.535,41.751,69.47,39.169Z" transform="translate(-52.729 -22.133)" fill="#fff"/>
      <path id="Path_246" data-name="Path 246" d="M92.634,41.436a10.128,10.128,0,0,0-2.065-3.614,10.3,10.3,0,0,0-2.839-2.194,11.559,11.559,0,0,0-9.551,0h0a.978.978,0,0,1-.516.258V34.854a4.666,4.666,0,0,1,1.678-4,6.157,6.157,0,0,1,4.13-1.42h9.293L90.569,24.4h-7.1a11.71,11.71,0,0,0-7.615,2.71C73.662,28.917,72.5,31.757,72.5,35.5V47.373h0v.258a22.624,22.624,0,0,0,.645,6.066,10.128,10.128,0,0,0,2.065,3.614,10.3,10.3,0,0,0,2.839,2.194h0a10.458,10.458,0,0,0,4.775,1.033A10.077,10.077,0,0,0,87.6,59.505a8.665,8.665,0,0,0,2.839-2.194A8.515,8.515,0,0,0,92.5,53.7a22.624,22.624,0,0,0,.645-6.066A19.5,19.5,0,0,0,92.634,41.436Zm-4.775,9.938a5.646,5.646,0,0,1-1.033,2.194c-.9,1.291-2.194,1.807-4.13,1.807a5,5,0,0,1-4.13-1.807,4.685,4.685,0,0,1-.9-2.194h0A24.47,24.47,0,0,1,77.4,47.5a23.2,23.2,0,0,1,.258-3.872v-.258a.474.474,0,0,1,.129-.387v-.129a3.077,3.077,0,0,1,.774-1.42A4.665,4.665,0,0,1,82.7,39.63a4.834,4.834,0,0,1,4.13,1.807,6.848,6.848,0,0,1,1.033,2.194,24.47,24.47,0,0,1,.258,3.872A14.862,14.862,0,0,1,87.859,51.374Z" transform="translate(-46.983 -24.4)" fill="#fff"/>
      <path id="Path_247" data-name="Path 247" d="M132.35,42.067v-.645h0a9.537,9.537,0,0,0-3.227-6.711A11.71,11.71,0,0,0,121.509,32a10.429,10.429,0,0,0-4.775,1.162,11.146,11.146,0,0,0-2.065,1.291l2.065,4.9a7.874,7.874,0,0,1,2.065-1.549,5.241,5.241,0,0,1,2.71-.645,6.157,6.157,0,0,1,4.13,1.42,5.483,5.483,0,0,1,1.549,2.968.776.776,0,0,0,.129.516v1.549a.978.978,0,0,0-.516-.258h0a5.7,5.7,0,0,0-2.065-.774h0a3.979,3.979,0,0,0-1.291-.129h-1.42a10.077,10.077,0,0,0-4.775,1.033,10.738,10.738,0,0,0-2.323,1.678c-.258.129-.387.387-.516.516a8.515,8.515,0,0,0-2.065,3.614,23.038,23.038,0,0,0-.645,6.2,22.624,22.624,0,0,0,.645,6.066,10.128,10.128,0,0,0,2.065,3.614,10.3,10.3,0,0,0,2.839,2.194,11.559,11.559,0,0,0,9.551,0h0a8.665,8.665,0,0,0,2.839-2.194,8.515,8.515,0,0,0,2.065-3.614,22.625,22.625,0,0,0,.645-6.066v-.258h0V43.358C132.35,42.841,132.35,42.454,132.35,42.067ZM127.059,59.1h0a7.9,7.9,0,0,1-.9,2.194,4.665,4.665,0,0,1-4.13,1.807A4.834,4.834,0,0,1,117.9,61.3a6.848,6.848,0,0,1-1.033-2.194,24.47,24.47,0,0,1-.258-3.872,23.2,23.2,0,0,1,.258-3.872,5.646,5.646,0,0,1,1.033-2.194c.9-1.291,2.194-1.807,4.13-1.807a5,5,0,0,1,4.13,1.807c.258.516.516.9.774,1.42v.129c0,.129.129.258.129.387v.258a24.47,24.47,0,0,1,.258,3.872A22,22,0,0,1,127.059,59.1Z" transform="translate(-35.59 -22.191)" fill="#fff"/>
      <path id="Path_248" data-name="Path 248" d="M188.536,43.772a11.349,11.349,0,0,0-.387-2.581,9.951,9.951,0,0,0-4.13-5.421,11.536,11.536,0,0,0-4-1.42,9.811,9.811,0,0,0-19.618.129,9.566,9.566,0,0,0,7.1,9.293v2.968h0V47a22.625,22.625,0,0,0,.645,6.066,10.128,10.128,0,0,0,2.065,3.614,10.3,10.3,0,0,0,2.839,2.194h0a6.8,6.8,0,0,0,1.936.645c.387.129.774.129,1.033.258a7.431,7.431,0,0,0,1.936.129,8.539,8.539,0,0,0,4.775-1.033,8.665,8.665,0,0,0,2.839-2.194,8.516,8.516,0,0,0,2.065-3.614,12.435,12.435,0,0,0,.516-3.485h0v-.258A24.408,24.408,0,0,0,188.536,43.772Zm-19.618-4.388a4.84,4.84,0,0,1-3.485-4.646,4.9,4.9,0,0,1,9.809,0,11.52,11.52,0,0,0-3.1,1.162A8.974,8.974,0,0,0,168.918,39.384ZM183.5,48.806v.9a4.814,4.814,0,0,1-.258,1.549,5.646,5.646,0,0,1-1.033,2.194c-.9,1.291-2.194,1.807-4.13,1.807a5,5,0,0,1-4.13-1.807,4.685,4.685,0,0,1-.9-2.194,10.006,10.006,0,0,1-.258-2.452v-4.13c0-.516.129-.9.129-1.162a5.93,5.93,0,0,1,.9-2.065,4.261,4.261,0,0,1,3.743-1.807h.645a4.344,4.344,0,0,1,3.872,1.807,4.828,4.828,0,0,1,.9,2.065,10.007,10.007,0,0,1,.258,2.452v2.839Z" transform="translate(-21.436 -24.284)" fill="#fff"/>
    </g>
  </g>
</svg>
