<svg xmlns="http://www.w3.org/2000/svg" width="20" height="15.75" viewBox="0 0 20 15.75">
  <g id="Icon_ionic-ios-menu" data-name="Icon ionic-ios-menu" transform="translate(-4.5 -10.125)">
    <path id="Path_161" data-name="Path 161" d="M23.667,12.375H5.333c-.458,0-.833-.506-.833-1.125h0c0-.619.375-1.125.833-1.125H23.667c.458,0,.833.506.833,1.125h0C24.5,11.869,24.125,12.375,23.667,12.375Z" transform="translate(0)" fill="#fff"/>
    <path id="Path_162" data-name="Path 162" d="M23.667,19.125H5.333c-.458,0-.833-.506-.833-1.125h0c0-.619.375-1.125.833-1.125H23.667c.458,0,.833.506.833,1.125h0C24.5,18.619,24.125,19.125,23.667,19.125Z" transform="translate(0)" fill="#fff"/>
    <path id="Path_163" data-name="Path 163" d="M23.667,25.875H5.333c-.458,0-.833-.506-.833-1.125h0c0-.619.375-1.125.833-1.125H23.667c.458,0,.833.506.833,1.125h0C24.5,25.369,24.125,25.875,23.667,25.875Z" transform="translate(0)" fill="#fff"/>
  </g>
</svg>
