<svg xmlns="http://www.w3.org/2000/svg" width="18.671" height="18.705" viewBox="0 0 18.671 18.705">
  <path id="Icon_feather-phone" data-name="Icon feather-phone" d="M19.837,15.505V18.02A1.676,1.676,0,0,1,18.01,19.7a16.587,16.587,0,0,1-7.233-2.573,16.344,16.344,0,0,1-5.029-5.029A16.587,16.587,0,0,1,3.175,4.827,1.676,1.676,0,0,1,4.843,3H7.357A1.676,1.676,0,0,1,9.033,4.442,10.762,10.762,0,0,0,9.62,6.8a1.676,1.676,0,0,1-.377,1.768L8.178,9.63a13.41,13.41,0,0,0,5.029,5.029l1.064-1.064a1.676,1.676,0,0,1,1.768-.377A10.762,10.762,0,0,0,18.4,13.8a1.676,1.676,0,0,1,1.442,1.7Z" transform="translate(-2.167 -2)" fill="none" stroke="#d1b89f" stroke-linecap="round" stroke-linejoin="round" stroke-width="2"/>
</svg>
